# xmcd
#
# Track frame offsets:
#	150
#	41889
#	61676
#	89994
#	108360
#	125457
#	162303
#	193809
#	231407
#	266115
#	292382
#
# Disc length: 4652 seconds
#
# Revision: 1
# Processed by: cddbd v1.5PL3 Copyright (c) Steve Scherf et al.
# Submitted via: EasyCDDAExtractor 6.0.0.1
#
DISCID=b1122a0b
DTITLE=Roy Buchanan - Sweet Dreams-The Anthology CD2
DYEAR=1992
DGENRE=Blues
TTITLE0=Down By The River (Live)
TTITLE1=I'm A Ram (Live)
TTITLE2=I'm Evil (Live)
TTITLE3=Good God Have Mercy
TTITLE4=If Six Were Nine
TTITLE5=Green Onions
TTITLE6=Soul Dressing (Live)
TTITLE7=Hey Joe (Live)
TTITLE8=Fly...Night Bird
TTITLE9=Turn To Stone
TTITLE10=Oval Soliroquy
EXTD=
EXTT0=
EXTT1=
EXTT2=
EXTT3=
EXTT4=
EXTT5=
EXTT6=
EXTT7=
EXTT8=
EXTT9=
EXTT10=
PLAYORDER=
